<svg width="84" height="25" viewBox="0 0 84 25" fill="none" xmlns="http://www.w3.org/2000/svg">
<g clip-path="url(#clip0_99_103)">
<path fill-rule="evenodd" clip-rule="evenodd" d="M46.0807 16.1049V15.6458H52.4413V15.7808V15.9834V16.1184H50.9289V24.3963H50.6451L50.618 24.2882C50.4427 23.4645 49.5918 23.1809 49.1598 23.1809H49.092H48.9977C48.282 23.207 47.6417 23.5087 46.9799 23.8206L46.9046 23.8561C46.8371 23.8831 46.7727 23.9101 46.7086 23.9371C46.6445 23.9641 46.5804 23.9912 46.513 24.0182C45.8105 24.3558 45.0545 24.6529 44.136 24.6529C39.2204 24.6529 35.6283 20.4126 35.6283 14.4304C35.6283 7.09785 40.4358 3.54633 43.9336 3.54633C44.7032 3.54633 45.203 3.69487 45.878 3.91093L46.1617 3.99195C46.2261 4.01346 46.2936 4.03633 46.3633 4.06013L46.3642 4.06041C46.5135 4.11127 46.6759 4.1664 46.8503 4.22152L47.1205 4.28904C47.3097 4.32955 47.5528 4.37006 47.8362 4.38356C48.417 4.39707 49.092 4.24852 49.3758 3.57333L49.4161 3.49231H49.6457H49.7134V10.9194H49.6457H49.4029L49.3758 10.8114C48.1332 5.86899 46.6073 4.03246 43.9472 4.01896H43.9201C41.7323 4.01896 41.003 5.42336 40.6114 6.17958C39.5716 8.19164 39.3556 12.783 39.3556 14.1874C39.3556 18.117 39.7066 19.805 40.3684 21.5605C41.0437 23.3565 42.2185 24.2207 43.9875 24.1937C45.6217 24.1667 47.7148 23.4645 47.7148 20.3181V16.1049H46.0807ZM82.9876 16.9692V16.8476H83.3792V24.2747H68.7811V23.7886H70.5637V4.55912H68.5787H66.9042V19.0623C66.9445 21.601 65.2565 24.6664 61.5698 24.6664C56.0737 24.6664 54.1965 21.8035 54.1965 18.1035V4.55912H52.3061V4.28904V4.08649H59.3956V4.28904V4.55912H57.5726V19.7915C57.5726 19.9535 57.694 23.9777 61.6915 24.1262C62.7853 24.1667 63.9871 23.7346 64.8378 22.9244C65.5402 22.2627 66.3505 20.9933 66.3909 18.9272V4.55912H64.8245V4.28904V4.08649H68.5787H68.9838H69.1187H82.5556V10.8924H82.2315L82.2044 10.7844C80.9548 4.45915 78.0621 4.51863 75.0979 4.57959C74.9864 4.58188 74.8751 4.58417 74.7636 4.58613C74.5474 4.59963 74.1964 4.59963 73.9802 4.59963V13.7283H74.1289H74.1453C75.7763 13.7283 77.7628 13.7283 78.1936 9.77162L78.2072 9.65008H78.5313V18.3601H78.2072L78.1936 18.2385C77.8791 14.1766 76.0262 14.1959 74.3867 14.2129L74.3554 14.2133C74.3158 14.2137 74.2763 14.2141 74.2368 14.2144H73.9669V23.8021H74.1289C74.1877 23.8021 74.2574 23.8029 74.3367 23.8038C75.4785 23.8169 78.6437 23.8533 80.8405 21.8711C82.1773 20.6692 82.893 19.0218 82.9876 16.9692ZM25.2034 3.60035C21.0576 3.60035 16.5067 7.74603 16.5067 14.0793C16.5067 20.4127 21.2061 24.6123 25.2034 24.6123C29.2007 24.6123 33.9002 20.4127 33.9002 14.0793C33.8867 7.74603 29.3493 3.60035 25.2034 3.60035ZM30.0379 13.2961V13.4312V13.5257V13.6067V13.7283V13.7688V13.8903V13.9173V14.0523V14.1604C30.0379 15.3352 29.9298 19.859 28.7415 22.1141C28.0663 23.424 26.7564 24.1127 25.1764 24.1127C23.5964 24.1127 22.273 23.424 21.6113 22.1141C20.4229 19.859 20.3284 15.3352 20.3284 14.1604V14.0523V13.9173V13.8903V13.7688V13.7283V13.6067V13.5257V13.4312V13.2961V13.2421C20.3689 11.4326 20.5985 8.04311 21.6113 6.05805C22.4215 4.41058 24.069 4.05948 25.1764 4.05948C26.2972 4.05948 27.9313 4.41058 28.7415 6.05805C29.7542 8.04311 29.9705 11.4326 30.0244 13.2421C30.0379 13.2556 30.0379 13.2826 30.0379 13.2961ZM14.3997 4.08649H18.1134H18.2484V4.54562H16.6009H16.4254L10.497 24.3828H10.389L2.9346 4.54562H2.74554H0.98999V4.27554V4.08649H7.70162V4.27554V4.54562H6.28365H6.18913L11.5098 19.2918L15.9122 4.54562H14.2647V4.08649H14.3997Z" fill="#FFFEFC"/>
</g>
<defs>
<clipPath id="clip0_99_103">
<rect width="82.44" height="24" fill="white" transform="translate(0.98999 0.950073)"/>
</clipPath>
</defs>
</svg>
