<svg width="18" height="23" viewBox="0 0 18 23" fill="none" xmlns="http://www.w3.org/2000/svg">
<path d="M8.92855 13.0733C8.12587 13.0733 7.34121 12.8353 6.67381 12.3893C6.0064 11.9434 5.48622 11.3095 5.17905 10.568C4.87188 9.82637 4.79151 9.01035 4.9481 8.2231C5.1047 7.43584 5.49123 6.71269 6.05881 6.14511C6.62639 5.57753 7.34953 5.191 8.13679 5.0344C8.92405 4.87781 9.74007 4.95818 10.4816 5.26535C11.2232 5.57253 11.8571 6.09271 12.303 6.76011C12.749 7.42752 12.987 8.21217 12.987 9.01486C12.9857 10.0908 12.5577 11.1224 11.7969 11.8832C11.0361 12.644 10.0045 13.072 8.92855 13.0733ZM8.92855 6.5798C8.44694 6.5798 7.97615 6.72261 7.57571 6.99018C7.17526 7.25775 6.86315 7.63805 6.67885 8.083C6.49455 8.52795 6.44632 9.01756 6.54028 9.48991C6.63424 9.96227 6.86616 10.3962 7.20671 10.7367C7.54725 11.0773 7.98114 11.3092 8.4535 11.4031C8.92585 11.4971 9.41546 11.4489 9.86041 11.2646C10.3054 11.0803 10.6857 10.7681 10.9532 10.3677C11.2208 9.96726 11.3636 9.49647 11.3636 9.01486C11.363 8.36924 11.1062 7.75024 10.6497 7.29372C10.1932 6.8372 9.57417 6.58044 8.92855 6.5798Z" fill="#111111" fill-opacity="0.9"/>
<path d="M8.92856 22.8138L2.08117 14.7383C1.98603 14.6171 1.89187 14.4951 1.79871 14.3723C0.629051 12.8315 -0.00282564 10.9496 9.49908e-06 9.01513C9.49908e-06 6.64713 0.940694 4.37612 2.61512 2.70169C4.28955 1.02726 6.56056 0.0865784 8.92856 0.0865784C11.2966 0.0865784 13.5676 1.02726 15.242 2.70169C16.9164 4.37612 17.8571 6.64713 17.8571 9.01513C17.86 10.9487 17.2284 12.8298 16.0592 14.3698L16.0584 14.3723C16.0584 14.3723 15.8149 14.6921 15.7784 14.7351L8.92856 22.8138ZM3.09416 13.3942C3.09578 13.3942 3.28409 13.6442 3.32711 13.6978L8.92856 20.3041L14.5373 13.6888C14.573 13.6442 14.763 13.3926 14.7638 13.3917C15.7193 12.1329 16.2356 10.5955 16.2337 9.01513C16.2337 7.07768 15.4641 5.21958 14.0941 3.84959C12.7241 2.4796 10.866 1.70995 8.92856 1.70995C6.99111 1.70995 5.13301 2.4796 3.76302 3.84959C2.39303 5.21958 1.62338 7.07768 1.62338 9.01513C1.62168 10.5965 2.13781 12.1348 3.09416 13.3942Z" fill="#111111" fill-opacity="0.9"/>
</svg>
