<svg width="17" height="17" viewBox="0 0 17 17" fill="none" xmlns="http://www.w3.org/2000/svg">
<path fill-rule="evenodd" clip-rule="evenodd" d="M5.62354 0.510254H11.6235C14.3845 0.510254 16.6235 2.74925 16.6235 5.51025V11.5103C16.6235 14.2713 14.3845 16.5103 11.6235 16.5103H5.62354C2.86254 16.5103 0.623535 14.2713 0.623535 11.5103V5.51025C0.623535 2.74925 2.86254 0.510254 5.62354 0.510254ZM11.6235 15.0103C13.5535 15.0103 15.1235 13.4403 15.1235 11.5103V5.51025C15.1235 3.58025 13.5535 2.01025 11.6235 2.01025H5.62354C3.69354 2.01025 2.12354 3.58025 2.12354 5.51025V11.5103C2.12354 13.4403 3.69354 15.0103 5.62354 15.0103H11.6235Z" fill="#111111"/>
<path fill-rule="evenodd" clip-rule="evenodd" d="M4.62354 8.51025C4.62354 6.30125 6.41454 4.51025 8.62354 4.51025C10.8325 4.51025 12.6235 6.30125 12.6235 8.51025C12.6235 10.7193 10.8325 12.5103 8.62354 12.5103C6.41454 12.5103 4.62354 10.7193 4.62354 8.51025ZM6.12354 8.51025C6.12354 9.88825 7.24554 11.0103 8.62354 11.0103C10.0015 11.0103 11.1235 9.88825 11.1235 8.51025C11.1235 7.13125 10.0015 6.01025 8.62354 6.01025C7.24554 6.01025 6.12354 7.13125 6.12354 8.51025Z" fill="#111111"/>
<circle cx="12.9235" cy="4.21025" r="0.533" fill="#111111"/>
</svg>
