<svg width="20" height="17" viewBox="0 0 20 17" fill="none" xmlns="http://www.w3.org/2000/svg">
<path d="M19.6235 2.39125C18.8963 2.71025 18.1214 2.9217 17.3135 3.02436C18.1447 2.52814 18.779 1.74837 19.0772 0.808476C18.3023 1.27048 17.4468 1.59681 16.535 1.77892C15.7992 0.995476 14.7505 0.510254 13.6065 0.510254C11.387 0.510254 9.6001 2.31181 9.6001 4.52037C9.6001 4.83814 9.62699 5.1437 9.69299 5.43459C6.35999 5.27203 3.41077 3.67459 1.42955 1.24114C1.08366 1.84125 0.880771 2.52814 0.880771 3.26759C0.880771 4.65603 1.59577 5.88681 2.66155 6.59937C2.01744 6.58714 1.38555 6.40014 0.850215 6.10559C0.850215 6.11781 0.850215 6.1337 0.850215 6.14959C0.850215 8.09781 2.23988 9.71603 4.06222 10.0888C3.73588 10.178 3.38022 10.2208 3.0111 10.2208C2.75444 10.2208 2.49533 10.2061 2.2521 10.1524C2.77155 11.74 4.24555 12.9073 5.99822 12.9451C4.63422 14.0121 2.90233 14.655 1.02744 14.655C0.69866 14.655 0.383327 14.6404 0.0679932 14.6C1.84388 15.7453 3.94855 16.3991 6.21822 16.3991C13.5955 16.3991 17.6289 10.288 17.6289 4.99092C17.6289 4.8137 17.6228 4.64259 17.6142 4.4727C18.4099 3.90803 19.0784 3.20281 19.6235 2.39125Z" fill="#111111"/>
</svg>
